<svg xmlns="http://www.w3.org/Base/1999/xlink" viewBox="0 0 1200 800" xmlns="http://www.w3.org/2000/svg">
  <defs>
    <linearGradient id="bg" x1="0" y1="0" x2="1" y2="1">
      <stop offset="0%" stop-color="#18181b" />
      <stop offset="100%" stop-color="#27272a" />
    </linearGradient>
    <linearGradient id="eq" x1="0" y1="1" x2="0" y2="0">
      <stop offset="0%" stop-color="#10b981" />
      <stop offset="50%" stop-color="#f59e0b" />
      <stop offset="100%" stop-color="#ef4444" />
    </linearGradient>
    <filter id="shadow">
      <feDropShadow dx="0" dy="10" stdDeviation="15" flood-color="#000" flood-opacity="0.5"/>
    </filter>
  </defs>
  <rect width="1200" height="800" fill="url(#bg)" />

  <!-- Waveform Background -->
  <g opacity="0.1" fill="none" stroke="#fff" stroke-width="2">
    <path d="M 0,400 Q 150,200 300,400 T 600,400 T 900,400 T 1200,400" />
    <path d="M 0,400 Q 150,300 300,400 T 600,400 T 900,400 T 1200,400" />
    <path d="M 0,400 Q 150,100 300,400 T 600,400 T 900,400 T 1200,400" />
    <path d="M 0,400 Q 150,500 300,400 T 600,400 T 900,400 T 1200,400" />
    <path d="M 0,400 Q 150,600 300,400 T 600,400 T 900,400 T 1200,400" />
  </g>

  <!-- Mixer Console -->
  <g transform="translate(200, 150)" filter="url(#shadow)">
    <!-- Console Base -->
    <rect width="800" height="500" rx="20" fill="#3f3f46" stroke="#52525b" stroke-width="2" />
    <rect x="20" y="20" width="760" height="460" rx="10" fill="#27272a" />
    
    <!-- Tracks -->
    <g transform="translate(40, 40)">
      <!-- Track 1 -->
      <rect x="0" y="0" width="80" height="420" rx="5" fill="#3f3f46" />
      <!-- EQ Knobs -->
      <circle cx="40" cy="40" r="15" fill="#18181b" stroke="#71717a" stroke-width="2" />
      <path d="M 40,40 L 40,25" stroke="#fff" stroke-width="3" stroke-linecap="round" />
      <circle cx="40" cy="80" r="15" fill="#18181b" stroke="#71717a" stroke-width="2" />
      <path d="M 40,80 L 30,70" stroke="#fff" stroke-width="3" stroke-linecap="round" />
      <circle cx="40" cy="120" r="15" fill="#18181b" stroke="#71717a" stroke-width="2" />
      <path d="M 40,120 L 50,110" stroke="#fff" stroke-width="3" stroke-linecap="round" />
      <!-- Fader Track -->
      <rect x="35" y="160" width="10" height="200" rx="5" fill="#18181b" />
      <rect x="25" y="240" width="30" height="40" rx="5" fill="#e4e4e7" filter="drop-shadow(0 4px 3px rgb(0 0 0 / 0.07))" />
      <!-- Solo/Mute -->
      <rect x="15" y="380" width="20" height="20" rx="3" fill="#ef4444" opacity="0.8" />
      <rect x="45" y="380" width="20" height="20" rx="3" fill="#eab308" opacity="0.3" />
    </g>

    <g transform="translate(140, 40)">
      <!-- Track 2 -->
      <rect x="0" y="0" width="80" height="420" rx="5" fill="#3f3f46" />
      <!-- EQ Knobs -->
      <circle cx="40" cy="40" r="15" fill="#18181b" stroke="#71717a" stroke-width="2" />
      <path d="M 40,40 L 50,30" stroke="#fff" stroke-width="3" stroke-linecap="round" />
      <circle cx="40" cy="80" r="15" fill="#18181b" stroke="#71717a" stroke-width="2" />
      <path d="M 40,80 L 40,65" stroke="#fff" stroke-width="3" stroke-linecap="round" />
      <circle cx="40" cy="120" r="15" fill="#18181b" stroke="#71717a" stroke-width="2" />
      <path d="M 40,120 L 30,130" stroke="#fff" stroke-width="3" stroke-linecap="round" />
      <!-- Fader Track -->
      <rect x="35" y="160" width="10" height="200" rx="5" fill="#18181b" />
      <rect x="25" y="200" width="30" height="40" rx="5" fill="#e4e4e7" />
      <!-- Solo/Mute -->
      <rect x="15" y="380" width="20" height="20" rx="3" fill="#ef4444" opacity="0.3" />
      <rect x="45" y="380" width="20" height="20" rx="3" fill="#eab308" opacity="0.8" />
    </g>

    <g transform="translate(240, 40)">
      <!-- Track 3 -->
      <rect x="0" y="0" width="80" height="420" rx="5" fill="#3f3f46" />
      <!-- Fader Track -->
      <rect x="35" y="160" width="10" height="200" rx="5" fill="#18181b" />
      <rect x="25" y="300" width="30" height="40" rx="5" fill="#e4e4e7" />
    </g>

    <g transform="translate(340, 40)">
      <!-- Track 4 -->
      <rect x="0" y="0" width="80" height="420" rx="5" fill="#3f3f46" />
      <!-- Fader Track -->
      <rect x="35" y="160" width="10" height="200" rx="5" fill="#18181b" />
      <rect x="25" y="180" width="30" height="40" rx="5" fill="#e4e4e7" />
    </g>

    <!-- Master Section -->
    <g transform="translate(500, 40)">
      <rect x="0" y="0" width="200" height="420" rx="10" fill="#18181b" />
      <!-- VU Meters -->
      <g transform="translate(40, 20)">
        <rect x="0" y="0" width="20" height="200" rx="2" fill="#3f3f46" />
        <rect x="30" y="0" width="20" height="200" rx="2" fill="#3f3f46" />
        
        <rect x="0" y="60" width="20" height="140" rx="2" fill="url(#eq)" />
        <rect x="30" y="40" width="20" height="160" rx="2" fill="url(#eq)" />
      </g>
      
      <!-- Master Fader -->
      <rect x="95" y="240" width="10" height="150" rx="5" fill="#000" />
      <rect x="75" y="280" width="50" height="40" rx="5" fill="#ef4444" />
    </g>
  </g>
</svg>